<svg width="80" height="80" viewBox="0 0 80 80" fill="none" xmlns="http://www.w3.org/2000/svg">
<path fill-rule="evenodd" clip-rule="evenodd" d="M40 80C62.0914 80 80 62.0914 80 40C80 17.9086 62.0914 0 40 0C17.9086 0 0 17.9086 0 40C0 62.0914 17.9086 80 40 80Z" fill="#29333F"/>
<path d="M24.8879 46.168C24.1132 46.168 23.3619 46.0653 22.6339 45.86C21.9152 45.6453 21.3365 45.37 20.8979 45.034L21.6679 43.326C22.0879 43.634 22.5872 43.8813 23.1659 44.068C23.7445 44.2547 24.3232 44.348 24.9019 44.348C25.5459 44.348 26.0219 44.2547 26.3299 44.068C26.6379 43.872 26.7919 43.6153 26.7919 43.298C26.7919 43.0647 26.6985 42.8733 26.5119 42.724C26.3345 42.5653 26.1012 42.4393 25.8119 42.346C25.5319 42.2527 25.1492 42.15 24.6639 42.038C23.9172 41.8607 23.3059 41.6833 22.8299 41.506C22.3539 41.3287 21.9432 41.044 21.5979 40.652C21.2619 40.26 21.0939 39.7373 21.0939 39.084C21.0939 38.5147 21.2479 38.0013 21.5559 37.544C21.8639 37.0773 22.3259 36.7087 22.9419 36.438C23.5672 36.1673 24.3279 36.032 25.2239 36.032C25.8492 36.032 26.4605 36.1067 27.0579 36.256C27.6552 36.4053 28.1779 36.62 28.6259 36.9L27.9259 38.622C27.0205 38.1087 26.1152 37.852 25.2099 37.852C24.5752 37.852 24.1039 37.9547 23.7959 38.16C23.4972 38.3653 23.3479 38.636 23.3479 38.972C23.3479 39.308 23.5205 39.56 23.8659 39.728C24.2205 39.8867 24.7572 40.0453 25.4759 40.204C26.2225 40.3813 26.8339 40.5587 27.3099 40.736C27.7859 40.9133 28.1919 41.1933 28.5279 41.576C28.8732 41.9587 29.0459 42.4767 29.0459 43.13C29.0459 43.69 28.8872 44.2033 28.5699 44.67C28.2619 45.1273 27.7952 45.4913 27.1699 45.762C26.5445 46.0327 25.7839 46.168 24.8879 46.168ZM38.2163 43.9H33.6663L32.7983 46H30.4743L34.8423 36.2H37.0823L41.4643 46H39.0843L38.2163 43.9ZM37.5023 42.178L35.9483 38.426L34.3943 42.178H37.5023ZM43.6477 36.2H45.9157V44.152H50.8297V46H43.6477V36.2ZM60.8516 44.18V46H53.2636V36.2H60.6696V38.02H55.5176V40.148H60.0676V41.912H55.5176V44.18H60.8516Z" fill="white"/>
</svg>
