<svg width="24" height="24" viewBox="0 0 24 24" fill="none" xmlns="http://www.w3.org/2000/svg">
<mask id="mask0" mask-type="alpha" maskUnits="userSpaceOnUse" x="2" y="2" width="20" height="20">
<path fill-rule="evenodd" clip-rule="evenodd" d="M16.5599 15.44L21.3599 20.24C21.6799 20.56 21.6799 21.04 21.3599 21.36C21.1999 21.52 20.9599 21.6 20.7999 21.6C20.6399 21.6 20.3999 21.52 20.2399 21.36L15.4399 16.56C14.0799 17.76 12.3199 18.4 10.3999 18.4C5.9999 18.4 2.3999 14.8 2.3999 10.4C2.3999 5.99999 5.9999 2.39999 10.3999 2.39999C14.7999 2.39999 18.3999 5.99999 18.3999 10.4C18.3999 12.32 17.6799 14.08 16.5599 15.44ZM10.3999 3.99999C6.8799 3.99999 3.9999 6.87999 3.9999 10.4C3.9999 13.92 6.8799 16.8 10.3999 16.8C13.9199 16.8 16.7999 13.92 16.7999 10.4C16.7999 6.87999 13.9199 3.99999 10.3999 3.99999Z" fill="white"/>
</mask>
<g mask="url(#mask0)">
<rect width="24" height="22" fill="#29333F"/>
</g>
</svg>
