<svg width="158" height="76" viewBox="0 0 158 76" fill="none" xmlns="http://www.w3.org/2000/svg">
<path d="M107.162 57.2H109.43V65.152H114.344V67H107.162V57.2ZM121.36 67.168C120.342 67.168 119.423 66.9487 118.602 66.51C117.79 66.0713 117.15 65.4693 116.684 64.704C116.226 63.9293 115.998 63.0613 115.998 62.1C115.998 61.1387 116.226 60.2753 116.684 59.51C117.15 58.7353 117.79 58.1287 118.602 57.69C119.423 57.2513 120.342 57.032 121.36 57.032C122.377 57.032 123.292 57.2513 124.104 57.69C124.916 58.1287 125.555 58.7353 126.022 59.51C126.488 60.2753 126.722 61.1387 126.722 62.1C126.722 63.0613 126.488 63.9293 126.022 64.704C125.555 65.4693 124.916 66.0713 124.104 66.51C123.292 66.9487 122.377 67.168 121.36 67.168ZM121.36 65.236C121.938 65.236 122.461 65.1053 122.928 64.844C123.394 64.5733 123.758 64.2 124.02 63.724C124.29 63.248 124.426 62.7067 124.426 62.1C124.426 61.4933 124.29 60.952 124.02 60.476C123.758 60 123.394 59.6313 122.928 59.37C122.461 59.0993 121.938 58.964 121.36 58.964C120.781 58.964 120.258 59.0993 119.792 59.37C119.325 59.6313 118.956 60 118.686 60.476C118.424 60.952 118.294 61.4933 118.294 62.1C118.294 62.7067 118.424 63.248 118.686 63.724C118.956 64.2 119.325 64.5733 119.792 64.844C120.258 65.1053 120.781 65.236 121.36 65.236ZM136.215 61.946H138.287V65.922C137.755 66.3233 137.139 66.6313 136.439 66.846C135.739 67.0607 135.034 67.168 134.325 67.168C133.308 67.168 132.393 66.9533 131.581 66.524C130.769 66.0853 130.13 65.4833 129.663 64.718C129.206 63.9433 128.977 63.0707 128.977 62.1C128.977 61.1293 129.206 60.2613 129.663 59.496C130.13 58.7213 130.774 58.1193 131.595 57.69C132.416 57.2513 133.34 57.032 134.367 57.032C135.226 57.032 136.005 57.1767 136.705 57.466C137.405 57.7553 137.993 58.1753 138.469 58.726L137.013 60.07C136.313 59.3327 135.468 58.964 134.479 58.964C133.854 58.964 133.298 59.0947 132.813 59.356C132.328 59.6173 131.95 59.986 131.679 60.462C131.408 60.938 131.273 61.484 131.273 62.1C131.273 62.7067 131.408 63.248 131.679 63.724C131.95 64.2 132.323 64.5733 132.799 64.844C133.284 65.1053 133.835 65.236 134.451 65.236C135.104 65.236 135.692 65.096 136.215 64.816V61.946ZM141.56 57.2H143.828V67H141.56V57.2ZM156.309 57.2V67H154.447L149.561 61.05V67H147.321V57.2H149.197L154.069 63.15V57.2H156.309Z" fill="white"/>
<path d="M5.852 67.168C4.85333 67.168 3.948 66.9533 3.136 66.524C2.33333 66.0853 1.69867 65.4833 1.232 64.718C0.774667 63.9433 0.546 63.0707 0.546 62.1C0.546 61.1293 0.774667 60.2613 1.232 59.496C1.69867 58.7213 2.33333 58.1193 3.136 57.69C3.948 57.2513 4.858 57.032 5.866 57.032C6.71533 57.032 7.48067 57.1813 8.162 57.48C8.85267 57.7787 9.43133 58.208 9.898 58.768L8.442 60.112C7.77933 59.3467 6.958 58.964 5.978 58.964C5.37133 58.964 4.83 59.0993 4.354 59.37C3.878 59.6313 3.50467 60 3.234 60.476C2.97267 60.952 2.842 61.4933 2.842 62.1C2.842 62.7067 2.97267 63.248 3.234 63.724C3.50467 64.2 3.878 64.5733 4.354 64.844C4.83 65.1053 5.37133 65.236 5.978 65.236C6.958 65.236 7.77933 64.8487 8.442 64.074L9.898 65.418C9.43133 65.9873 8.85267 66.4213 8.162 66.72C7.47133 67.0187 6.70133 67.168 5.852 67.168ZM17.1372 67.168C16.1198 67.168 15.2005 66.9487 14.3792 66.51C13.5672 66.0713 12.9278 65.4693 12.4612 64.704C12.0038 63.9293 11.7752 63.0613 11.7752 62.1C11.7752 61.1387 12.0038 60.2753 12.4612 59.51C12.9278 58.7353 13.5672 58.1287 14.3792 57.69C15.2005 57.2513 16.1198 57.032 17.1372 57.032C18.1545 57.032 19.0692 57.2513 19.8812 57.69C20.6932 58.1287 21.3325 58.7353 21.7992 59.51C22.2658 60.2753 22.4992 61.1387 22.4992 62.1C22.4992 63.0613 22.2658 63.9293 21.7992 64.704C21.3325 65.4693 20.6932 66.0713 19.8812 66.51C19.0692 66.9487 18.1545 67.168 17.1372 67.168ZM17.1372 65.236C17.7158 65.236 18.2385 65.1053 18.7052 64.844C19.1718 64.5733 19.5358 64.2 19.7972 63.724C20.0678 63.248 20.2032 62.7067 20.2032 62.1C20.2032 61.4933 20.0678 60.952 19.7972 60.476C19.5358 60 19.1718 59.6313 18.7052 59.37C18.2385 59.0993 17.7158 58.964 17.1372 58.964C16.5585 58.964 16.0358 59.0993 15.5692 59.37C15.1025 59.6313 14.7338 60 14.4632 60.476C14.2018 60.952 14.0712 61.4933 14.0712 62.1C14.0712 62.7067 14.2018 63.248 14.4632 63.724C14.7338 64.2 15.1025 64.5733 15.5692 64.844C16.0358 65.1053 16.5585 65.236 17.1372 65.236ZM34.3583 57.2V67H32.4963L27.6103 61.05V67H25.3703V57.2H27.2463L32.1183 63.15V57.2H34.3583ZM39.8736 59.048H36.7376V57.2H45.2776V59.048H42.1416V67H39.8736V59.048ZM53.6264 64.9H49.0764L48.2084 67H45.8844L50.2524 57.2H52.4924L56.8744 67H54.4944L53.6264 64.9ZM52.9124 63.178L51.3584 59.426L49.8044 63.178H52.9124ZM63.6111 67.168C62.6124 67.168 61.7071 66.9533 60.8951 66.524C60.0924 66.0853 59.4578 65.4833 58.9911 64.718C58.5338 63.9433 58.3051 63.0707 58.3051 62.1C58.3051 61.1293 58.5338 60.2613 58.9911 59.496C59.4578 58.7213 60.0924 58.1193 60.8951 57.69C61.7071 57.2513 62.6171 57.032 63.6251 57.032C64.4744 57.032 65.2398 57.1813 65.9211 57.48C66.6118 57.7787 67.1904 58.208 67.6571 58.768L66.2011 60.112C65.5384 59.3467 64.7171 58.964 63.7371 58.964C63.1304 58.964 62.5891 59.0993 62.1131 59.37C61.6371 59.6313 61.2638 60 60.9931 60.476C60.7318 60.952 60.6011 61.4933 60.6011 62.1C60.6011 62.7067 60.7318 63.248 60.9931 63.724C61.2638 64.2 61.6371 64.5733 62.1131 64.844C62.5891 65.1053 63.1304 65.236 63.7371 65.236C64.7171 65.236 65.5384 64.8487 66.2011 64.074L67.6571 65.418C67.1904 65.9873 66.6118 66.4213 65.9211 66.72C65.2304 67.0187 64.4604 67.168 63.6111 67.168ZM72.2897 59.048H69.1537V57.2H77.6937V59.048H74.5577V67H72.2897V59.048Z" fill="white"/>
<path opacity="0.15" d="M90.5 51.5V74.5868" stroke="white" stroke-linecap="square"/>
<mask id="mask0" mask-type="alpha" maskUnits="userSpaceOnUse" x="28" y="2" width="20" height="20">
<path fill-rule="evenodd" clip-rule="evenodd" d="M42.5604 15.44L47.3604 20.24C47.6804 20.56 47.6804 21.04 47.3604 21.36C47.2004 21.52 46.9604 21.6 46.8004 21.6C46.6404 21.6 46.4004 21.52 46.2404 21.36L41.4404 16.56C40.0804 17.76 38.3204 18.4 36.4004 18.4C32.0004 18.4 28.4004 14.8 28.4004 10.4C28.4004 6.00002 32.0004 2.40002 36.4004 2.40002C40.8004 2.40002 44.4004 6.00002 44.4004 10.4C44.4004 12.32 43.6804 14.08 42.5604 15.44ZM36.4004 4.00002C32.8804 4.00002 30.0004 6.88002 30.0004 10.4C30.0004 13.92 32.8804 16.8 36.4004 16.8C39.9204 16.8 42.8004 13.92 42.8004 10.4C42.8004 6.88002 39.9204 4.00002 36.4004 4.00002Z" fill="white"/>
</mask>
<g mask="url(#mask0)">
<rect x="26" width="24" height="24" fill="white"/>
</g>
<mask id="mask1" mask-type="alpha" maskUnits="userSpaceOnUse" x="68" y="3" width="20" height="18">
<path d="M82.4004 3.20001C79.6004 3.20001 78.0004 5.60001 78.0004 5.60001C78.0004 5.60001 76.4004 3.20001 73.6004 3.20001C70.7204 3.20001 68.4004 5.52001 68.4004 8.40001C68.4004 13.44 74.3204 18.32 77.0404 20.48C77.2804 20.72 77.6004 20.8 78.0004 20.8C78.4004 20.8 78.7204 20.64 78.9604 20.48C81.6804 18.4 87.6004 13.52 87.6004 8.40001C87.6004 5.52001 85.2804 3.20001 82.4004 3.20001Z" fill="white"/>
</mask>
<g mask="url(#mask1)">
<rect x="66" width="24" height="24" fill="white"/>
</g>
<mask id="mask2" mask-type="alpha" maskUnits="userSpaceOnUse" x="107" y="1" width="22" height="21">
<path fill-rule="evenodd" clip-rule="evenodd" d="M128 6.79988C128.24 6.79988 128.48 6.87988 128.64 7.11988C128.8 7.27988 128.8 7.59988 128.8 7.83988L126.72 15.4399C126.4 16.4799 125.44 17.1999 124.4 17.1999H115.6C114.56 17.1999 113.6 16.4799 113.36 15.5199L109.92 3.91988C109.84 3.67988 109.68 3.59988 109.52 3.59988H108C107.52 3.59988 107.2 3.27988 107.2 2.79988C107.2 2.31988 107.52 1.99988 108 1.99988H109.52C110.4 1.99988 111.2 2.55988 111.44 3.43988L112.4 6.79988H128ZM117.132 19.2687C117.757 19.8936 117.757 20.9066 117.132 21.5315C116.507 22.1563 115.494 22.1563 114.869 21.5315C114.244 20.9067 114.244 19.8935 114.869 19.2687C115.494 18.6439 116.507 18.6439 117.132 19.2687H117.132ZM125.132 19.2687C125.757 19.8936 125.757 20.9066 125.132 21.5315C124.507 22.1563 123.494 22.1563 122.869 21.5315C122.244 20.9067 122.244 19.8935 122.869 19.2687C123.494 18.6439 124.507 18.6439 125.132 19.2687H125.132Z" fill="white"/>
</mask>
<g mask="url(#mask2)">
<rect x="106" width="24" height="24" fill="white"/>
</g>
</svg>
